<svg width="48" height="49" viewBox="0 0 48 49" fill="none" xmlns="http://www.w3.org/2000/svg">
<path d="M31.3084 30.675C31.3084 30.975 31.2417 31.2833 31.1001 31.5833C30.9584 31.8833 30.7751 32.1667 30.5334 32.4333C30.1251 32.8833 29.6751 33.2083 29.1667 33.4167C28.6667 33.625 28.1251 33.7333 27.5417 33.7333C26.6917 33.7333 25.7834 33.5333 24.8251 33.125C23.8667 32.7167 22.9084 32.1667 21.9584 31.475C21.0001 30.775 20.0917 30 19.2251 29.1417C18.3667 28.275 17.5917 27.3667 16.9001 26.4167C16.2167 25.4667 15.6667 24.5167 15.2667 23.575C14.8667 22.625 14.6667 21.7167 14.6667 20.85C14.6667 20.2833 14.7667 19.7417 14.9667 19.2417C15.1667 18.7333 15.4834 18.2667 15.9251 17.85C16.4584 17.325 17.0417 17.0667 17.6584 17.0667C17.8917 17.0667 18.1251 17.1167 18.3334 17.2167C18.5501 17.3167 18.7417 17.4667 18.8917 17.6833L20.8251 20.4083C20.9751 20.6167 21.0834 20.8083 21.1584 20.9917C21.2334 21.1667 21.2751 21.3417 21.2751 21.5C21.2751 21.7 21.2167 21.9 21.1001 22.0917C20.9917 22.2833 20.8334 22.4833 20.6334 22.6833L20.0001 23.3417C19.9084 23.4333 19.8667 23.5417 19.8667 23.675C19.8667 23.7417 19.8751 23.8 19.8917 23.8667C19.9167 23.9333 19.9417 23.9833 19.9584 24.0333C20.1084 24.3083 20.3667 24.6667 20.7334 25.1C21.1084 25.5333 21.5084 25.975 21.9417 26.4167C22.3917 26.8583 22.8251 27.2667 23.2667 27.6417C23.7001 28.0083 24.0584 28.2583 24.3417 28.4083C24.3834 28.425 24.4334 28.45 24.4917 28.475C24.5584 28.5 24.6251 28.5083 24.7001 28.5083C24.8417 28.5083 24.9501 28.4583 25.0417 28.3667L25.6751 27.7417C25.8834 27.5333 26.0834 27.375 26.2751 27.275C26.4667 27.1583 26.6584 27.1 26.8667 27.1C27.0251 27.1 27.1917 27.1333 27.3751 27.2083C27.5584 27.2833 27.7501 27.3917 27.9584 27.5333L30.7167 29.4917C30.9334 29.6417 31.0834 29.8167 31.1751 30.025C31.2584 30.2333 31.3084 30.4417 31.3084 30.675Z" stroke="white" stroke-width="1.2" stroke-miterlimit="10"/>
<path d="M28.4167 22.9001C28.4167 22.4001 28.025 21.6334 27.4417 21.0084C26.9083 20.4334 26.2 19.9834 25.5 19.9834" stroke="white" stroke-width="1.2" stroke-linecap="round" stroke-linejoin="round"/>
<path d="M31.3333 22.9C31.3333 19.675 28.725 17.0667 25.5 17.0667" stroke="white" stroke-width="1.2" stroke-linecap="round" stroke-linejoin="round"/>
<rect x="0.5" y="0.900024" width="47" height="47" rx="23.5" stroke="#F5F1F1"/>
</svg>
