<svg width="48" height="48" viewBox="0 0 48 48" fill="none" xmlns="http://www.w3.org/2000/svg">
<path d="M25.6667 21.75V24.1667H27.8333C28 24.1667 28.0833 24.3333 28.0833 24.5L27.75 26.0833C27.75 26.1667 27.5833 26.25 27.5 26.25H25.6667V32.3333H23.1667V26.3333H21.75C21.5833 26.3333 21.5 26.25 21.5 26.0833V24.5C21.5 24.3333 21.5833 24.25 21.75 24.25H23.1667V21.5C23.1667 20.0833 24.25 19 25.6667 19H27.9167C28.0833 19 28.1667 19.0833 28.1667 19.25V21.25C28.1667 21.4167 28.0833 21.5 27.9167 21.5H25.9167C25.75 21.5 25.6667 21.5833 25.6667 21.75Z" stroke="white" stroke-miterlimit="10" stroke-linecap="round"/>
<path d="M26.5 32.3333H21.5C17.3333 32.3333 15.6666 30.6666 15.6666 26.5V21.5C15.6666 17.3333 17.3333 15.6666 21.5 15.6666H26.5C30.6666 15.6666 32.3333 17.3333 32.3333 21.5V26.5C32.3333 30.6666 30.6666 32.3333 26.5 32.3333Z" stroke="white" stroke-linecap="round" stroke-linejoin="round"/>
<path d="M24 47C11.2975 47 1 36.7025 1 24H-1C-1 37.8071 10.1929 49 24 49V47ZM47 24C47 36.7025 36.7025 47 24 47V49C37.8071 49 49 37.8071 49 24H47ZM24 1C36.7025 1 47 11.2975 47 24H49C49 10.1929 37.8071 -1 24 -1V1ZM24 -1C10.1929 -1 -1 10.1929 -1 24H1C1 11.2975 11.2975 1 24 1V-1Z" fill="#F5F1F1"/>
</svg>
