<svg width="48" height="48" viewBox="0 0 48 48" fill="none" xmlns="http://www.w3.org/2000/svg">
<path d="M28.1666 30.6667H19.8333C17.3333 30.6667 15.6666 29 15.6666 26.5V21.5C15.6666 19 17.3333 17.3334 19.8333 17.3334H28.1666C30.6666 17.3334 32.3333 19 32.3333 21.5V26.5C32.3333 29 30.6666 30.6667 28.1666 30.6667Z" stroke="white" stroke-miterlimit="10" stroke-linecap="round" stroke-linejoin="round"/>
<path d="M23.5 21.9166L25.5833 23.1666C26.3333 23.6666 26.3333 24.4166 25.5833 24.9166L23.5 26.1666C22.6667 26.6666 22 26.25 22 25.3333V22.8333C22 21.75 22.6667 21.4166 23.5 21.9166Z" stroke="white" stroke-miterlimit="10" stroke-linecap="round" stroke-linejoin="round"/>
<path d="M24 47C11.2975 47 1 36.7025 1 24H-1C-1 37.8071 10.1929 49 24 49V47ZM47 24C47 36.7025 36.7025 47 24 47V49C37.8071 49 49 37.8071 49 24H47ZM24 1C36.7025 1 47 11.2975 47 24H49C49 10.1929 37.8071 -1 24 -1V1ZM24 -1C10.1929 -1 -1 10.1929 -1 24H1C1 11.2975 11.2975 1 24 1V-1Z" fill="#F5F1F1"/>
</svg>
