<svg width="16" height="19" viewBox="0 0 16 19" fill="none" xmlns="http://www.w3.org/2000/svg">
<path fill-rule="evenodd" clip-rule="evenodd" d="M11.7183 0.838643C15.0761 2.58553 16.0054 7.60846 13.8761 12.186C11.9213 16.3883 8.01861 18.861 4.68466 18.1218C4.77248 18.0604 4.86092 17.9959 4.94971 17.9279C7.24672 16.171 8.57815 13.3088 8.08324 9.16456C7.63739 5.43025 8.7893 2.95391 10.782 1.42983C11.0694 1.20992 11.3498 1.0325 11.6104 0.894167C11.6494 0.87346 11.6854 0.85497 11.7183 0.838522L11.7183 0.838643ZM3.37675 17.6461C0.0189721 15.8992 -0.910353 10.8763 1.21899 6.29872C3.17376 2.09643 7.07648 -0.376203 10.4104 0.362938C10.3226 0.424315 10.2342 0.488864 10.1454 0.556861C7.84836 2.31373 6.51693 5.17599 7.01184 9.3202C7.45769 13.0545 6.30578 15.5309 4.3131 17.0549C4.02571 17.2748 3.74532 17.4523 3.48464 17.5906C3.44566 17.6113 3.40967 17.6298 3.37675 17.6462L3.37675 17.6461Z" fill="#EEDCCD"/>
</svg>
